<svg width="847" height="847" viewBox="0 0 847 847" fill="none" xmlns="http://www.w3.org/2000/svg">
<path d="M420.69 90.7999C595.36 89.68 743.87 214.71 769.44 381.88C796.13 556.34 689.51 694.41 570.3 745.79C635.56 707.9 681.45 654.35 705.72 583.76C723.52 532.01 725.68 479.24 713.34 426.05C701.33 374.31 676.45 329.06 639.1 290.68C520.31 168.66 322.76 169.369 205.62 292.279C163.57 336.359 137.77 388.4 128.7 448.14C119.64 507.81 128.32 565.05 155.27 619.319C182.2 673.519 222.9 715.37 275.99 745.77C155.1 693.58 56.5898 558.82 74.7496 396.3C94.0996 223.11 243.77 91.9399 420.69 90.7999ZM423.06 518.52C440.45 535.48 453.62 557.49 453.62 580.67C453.62 604 440.51 625.86 423.06 642.79C405.6 625.86 392.49 604 392.49 580.67C392.49 557.49 405.66 535.48 423.06 518.52ZM458.04 501.93C474.45 501.77 491.25 506 502.36 517.05C513.53 528.16 517.75 544.8 517.53 561.14C501.11 561.35 484.4 557.15 473.23 546.04C462.13 534.99 457.88 518.26 458.04 501.93ZM387.31 501.329H387.32C387.49 517.659 383.23 534.39 372.13 545.44C360.96 556.559 344.26 560.75 327.83 560.54C327.62 544.19 331.84 527.559 343 516.449C354.1 505.399 370.91 501.169 387.31 501.329ZM306.99 434.699C323.747 434.699 339.884 441.481 353.964 451.729C347.842 455.881 342.027 460.445 336.581 465.29C341.956 470.071 347.69 474.577 353.723 478.685C339.697 488.839 323.646 495.55 306.99 495.55C283.55 495.55 261.59 482.499 244.58 465.119C261.59 447.739 283.56 434.699 306.99 434.699ZM539.17 434.699C562.609 434.699 584.57 447.739 601.58 465.119C584.57 482.499 562.6 495.55 539.17 495.55C522.297 495.55 506.055 488.674 491.907 478.305C497.772 474.295 503.351 469.919 508.581 465.29C503.279 460.6 497.62 456.168 491.669 452.115C505.872 441.652 522.203 434.699 539.17 434.699ZM518.29 371.22C518.5 387.57 514.28 404.2 503.12 415.31C492.02 426.36 475.21 430.59 458.81 430.43C458.63 414.09 462.89 397.359 473.99 386.319C485.16 375.21 501.87 371 518.29 371.22ZM328.77 370.54C345.19 370.33 361.9 374.53 373.07 385.64C384.17 396.69 388.43 413.42 388.26 429.75C371.85 429.91 355.05 425.68 343.95 414.63C332.78 403.52 328.56 386.89 328.77 370.54ZM423.06 288.79C440.51 305.72 453.62 327.59 453.62 350.909C453.62 374.099 440.45 396.1 423.06 413.069C405.67 396.099 392.49 374.099 392.49 350.909C392.49 327.59 405.6 305.72 423.06 288.79Z" fill="black"/>
<path d="M422.58 487.79C435.283 487.79 445.58 477.493 445.58 464.79C445.58 452.087 435.283 441.79 422.58 441.79C409.878 441.79 399.58 452.087 399.58 464.79C399.58 477.493 409.878 487.79 422.58 487.79Z" fill="black"/>
</svg>
